<svg width="512" height="512" viewBox="0 0 512 512" xmlns="http://www.w3.org/2000/svg">
    <defs>
        <path id="bracket" fill="#00cece" d="m346.99096,42.00001l151.2005,0l0,453.6015l-151.2005,0l0,-56.70019l94.50031,0l0,-340.20113l-94.50031,0l0,-56.70019l0,0.00001z" stroke="null"/>
        <path id="eye" d="m204.23,188l14.99,9.966l-20.074,30.19l30.192,20.073l-9.965,14.99l-30.19,-20.073l-20.074,30.192l-14.99,-9.966l20.07,-30.192l-30.189,-20.07l9.965,-14.99l30.19,20.072l20.074,-30.19l0.001,-0.002z" fill="#d0021b"/>
    </defs>

    <rect width="512" height="512" fill="#ffffff" />

    <g>
        <use href="#eye" />
        <use href="#eye" transform="translate(523, -30) scale(-1.1, 1.1) rotate(10, 212, 212)" />

        <path d="m256,367c26,0 52.242,8.515 70.363,26.637l-12.726,12.726c-3.28,-3.28 -7.006,-6.198 -11.067,-8.75c-0.06,1.55 -0.142,3.128 -0.27,4.737c-0.46,5.693 -1.33,11.654 -3.568,17.257c-2.236,5.603 -6.655,11.875 -14.228,13.487c-8.496,1.807 -15.982,-2.58 -21.13,-7.59c-5.146,-5.01 -9.12,-11.24 -12.495,-17.422c-4.78,-8.754 -8.213,-17.494 -9.83,-21.902c-16.58,2.595 -31.98,9.477 -42.687,20.183l-12.726,-12.726c18.121,-18.122 44.364,-26.637 70.364,-26.637z" fill="#000000" id="mouth"/>
        <path d="m259.945,385.084c1.67,4.095 3.972,9.312 6.735,14.373c2.885,5.286 6.303,10.28 9.25,13.147c2.8,2.724 4.114,2.98 4.728,2.896c0.056,-0.07 0.543,-0.523 1.358,-2.564c1.098,-2.752 1.965,-7.354 2.34,-12.032c0.333,-4.114 0.343,-8.192 0.257,-11.523c-7.827,-2.495 -16.192,-3.952 -24.668,-4.296l0,-0.001z" fill="#d0021b" id="tongue"/>

        <use href="#bracket" />
        <use href="#bracket" transform="scale(-1, 1)" x="-512" />
    </g>
</svg>